<svg xmlns="http://www.w3.org/2000/svg" viewBox="0 0 900 600">
  <path fill="#f2f0f2" d="M0 0h900v600H0z"/>
  <path fill="none" stroke="#0070b8" stroke-width="0.2" d="m296 63 12-2m-12 9 19-2m-3 23 15-2m-23-4 20-3m-25-4 22-3m28-28a29 29 0 0 1-5 41 29 29 0 0 1-42-5 29 29 0 0 1 6-41 29 29 0 0 1 41 5zm-31 24a41 41 45 0 1-7 58 41 41 45 0 1-58-8 41 41 45 0 1 7-57 41 41 45 0 1 58 7z"/>
  <path fill="none" stroke="#0070b8" stroke-width="0.2" d="m324 279 2-5m1 6 3-8m9 7 2-6m-7 8 4-9m-8 9 4-9m-4-17a13 13 0 0 1 14 11 13 13 0 0 1-11 15 13 13 0 0 1-15-11 13 13 0 0 1 12-15zm2 17a18 18 0 0 1 21 16 18 18 0 0 1-16 20 18 18 0 0 1-21-15 18 18 0 0 1 16-21z"/>
  <path fill="none" stroke="#0070b8" stroke-width="0.2" d="m117 501 14 10m-21-2 23 18m-29 22 19 14m-21-29 26 18m-23-31 27 19m59-1a45 45 0 0 1-49 40 45 45 0 0 1-40-49 45 45 0 0 1 49-40 45 45 0 0 1 40 49zm-58-6a62 62 0 0 1-69 56 62 62 0 0 1-56-68 62 62 0 0 1 69-56 62 62 0 0 1 56 68Z"/>
  <path fill="none" stroke="#0070b8" stroke-width="0.2" d="m172 254 5 13m-13-10 8 21m-28 3 6 16m-1-27 9 22m-2-30 10 24m39 25a35 35 45 0 1-49 6 35 35 45 0 1-6-50 35 35 45 0 1 50-5 35 35 45 0 1 5 49zm-36-29a49 49 0 0 1-69 8 49 49 0 0 1-8-69 49 49 0 0 1 69-8 49 49 0 0 1 8 69zM523 474l-5 13m-2-17-9 21m-23-18-7 16m19-20-10 22m21-23-11 24m11 45a35 35 0 0 1-39-30 35 35 0 0 1 31-39 35 35 0 0 1 39 31 35 35 0 0 1-31 38zm-6-45a49 49 0 0 1-54-43 49 49 0 0 1 43-55 49 49 0 0 1 55 43 49 49 0 0 1-44 55z"/>
  <path fill="none" stroke="#0070b8" stroke-width="0.2" d="m753 496 10-1m-10 7 16-1m-3 19 12-1m-19-4 17-2m-20-5 17-1m24-22a24 24 0 0 1-5 33 24 24 0 0 1-34-5 24 24 0 0 1 5-33 24 24 0 0 1 34 5zm-26 18a33 33 0 0 1-7 47 33 33 0 0 1-47-7 33 33 0 0 1 7-47 33 33 0 0 1 47 7z"/>
  <path fill="none" stroke="#0070b8" stroke-width="0.2" d="m292 403 6-3m-5 6 10-3m1 13 7-3m-12 0 10-3m-14 0 11-4m12-17a16 16 0 0 1 2 22 16 16 0 0 1-22 2 16 16 0 0 1-2-23 16 16 0 0 1 22-1zm-13 15a22 22 0 0 1 2 31 22 22 0 0 1-31 3 22 22 0 0 1-3-31 22 22 0 0 1 32-3z"/>
  <path fill="none" stroke="#0070b8" stroke-width="0.2" d="m686 35 3 7m-7-5 5 11m-16 2 4 9m-1-15 5 12m-2-16 6 13m23 12a19 19 0 0 1-27 5 19 19 0 0 1-5-27 19 19 0 0 1 27-5 19 19 0 0 1 5 27zm-21-15a27 27 0 0 1-37 7 27 27 0 0 1-7-38 27 27 0 0 1 38-6 27 27 0 0 1 6 37z"/>
  <path fill="none" stroke="#0070b8" stroke-width="0.2" d="m80 41-1 12m-6-13-3 19m-22-9-1 15m9-21-2 20m11-23-3 22m21 33a29 29 0 0 1-39-14 29 29 0 0 1 14-39 29 29 0 0 1 39 14 29 29 0 0 1-14 39ZM67 61a41 41 0 0 1-55-20 41 41 0 0 1 20-55A41 41 0 0 1 87 6a41 41 0 0 1-20 55Z"/>
  <path fill="none" stroke="#0070b8" stroke-width="0.2" d="m613 321-2-20m14 20-2-33m40 9-1-26m-11 39-2-35m-11 42-2-37m-44-51a50 50 0 0 1 70 13 50 50 0 0 1-14 70 50 50 0 0 1-70-13 50 50 0 0 1 14-70zm37 55a71 71 45 0 1 98 19 71 71 45 0 1-19 98 71 71 45 0 1-98-19 71 71 45 0 1 19-98zM877 140l-2-20m14 20-2-33m40 9-2-26m-10 39-2-35m-11 42-2-38m-44-50a50 50 0 0 1 70 13 50 50 0 0 1-14 70 50 50 0 0 1-70-13 50 50 0 0 1 14-70zm37 55a71 71 0 0 1 98 18 71 71 0 0 1-19 98 71 71 0 0 1-98-18 71 71 0 0 1 19-98z"/>
</svg>
