<svg xmlns="http://www.w3.org/2000/svg" viewBox="0 0 54.5 8">
  <defs>
    <path id="a" d="M131 156h223v68H131Z"/>
  </defs>
  <g style="-inkscape-font-specification:ALLENA;white-space:pre;shape-inside:url(#a)" transform="translate(-35 -44.5) scale(.26458)">
    <path d="m156.3 195.8-.4-2c-1.2 2.5-5.4 3.6-8 3.6-5.5 0-10.4-4-12.5-9.7-2.6-7.3-.2-15 7-17.7a10.8 10.8 0 0 1 12.3 3.8l1.6-3a15.6 15.6 0 0 0-9-2.5c-9 0-15 6-15 15s6 15 15 15c2.5 0 6.6-.5 9-2.5zm5.7-8.1c-2.7-7.3-.2-15 7-17.7 1.4-.5 2.8-.8 4.2-.8 5.6 0 10.5 4 12.6 9.8 2.6 7.2.1 15-7 17.7-1.5.5-3 .7-4.3.7-5.6 0-10.5-4-12.5-9.7zm-3.2-4.4c0 9 6.1 15 15 15 9 0 15.1-6 15.1-15 0-8.9-6.1-15-15-15-9 0-15 6-15 15zm35.9-11.2v22.6c0 1.9-.8 3.4-2 3.7h4.7c-1.1-.3-1.9-1.8-1.9-3.7V170l10.5 19.3h2.4l-.8-1.4 10-17.9v24.7c0 1.9-.9 3.4-2 3.7h6.2c-1.2-.3-2-1.8-2-3.7V172c0-1.8.8-3.3 2-3.6h-4.3L207.2 187 197 168.5h-4.3c1.2.3 2 1.8 2 3.6zm32.8 0v22.6c0 1.9-.7 3.4-1.9 3.7h4.7c-1.1-.3-1.9-1.8-1.9-3.7V170l10.5 19.3h2.4l-.8-1.4 9.9-17.9v24.7c0 1.9-.8 3.4-2 3.7h6.3c-1.2-.3-2-1.8-2-3.7V172c0-1.8.8-3.3 2-3.6h-4.3L240 187l-10.2-18.6h-4.3c1.2.3 2 1.8 2 3.6zm33.5 15.6c-2.7-7.3-.2-15 7-17.7 1.4-.5 2.8-.8 4.2-.8 5.6 0 10.5 4 12.6 9.8 2.6 7.2.1 15-7 17.7-1.5.5-2.9.7-4.3.7-5.6 0-10.4-4-12.5-9.7zm-3.1-4.4c0 9 6 15 15 15s15-6 15-15c0-8.9-6-15-15-15s-15 6-15 15zm35.8-11.2v22.6c0 1.9-.8 3.4-2 3.7h4.8c-1.2-.3-2-1.8-2-3.7v-24.8l17.2 28.5h4.3c-1-.3-1.6-1.2-1.8-2.4v-24c0-1.8.8-3.3 1.9-3.6h-4.7c1.2.3 2 1.8 2 3.6v25L296 168.6h-4.2c1.1.3 1.9 1.8 1.9 3.6zm35 26.3c6 0 9.6-2.4 9.6-7 0-9.4-15.4-8.7-15.4-16 0-4.2 2.4-6 7.2-6 3.3 0 5.8 1.8 6.7 4l1.5-2.3c-1.7-1.7-4.5-2.6-8.2-2.6-6 0-9.5 2.4-9.5 7 0 9 15.3 7.4 15.3 15.9 0 4.1-2.3 6.1-7.2 6.1a7 7 0 0 1-7.2-6.8l-1 3.7c1.3 2.1 3.6 4 8.2 4z" aria-label="COMMONS" font-family="Allenia" font-size="42.7" style="-inkscape-font-specification:Allenia"/>
  </g>
</svg>
